<?xml version="1.0" standalone="no"?><!DOCTYPE svg PUBLIC "-//W3C//DTD SVG 1.1//EN" "http://www.w3.org/Graphics/SVG/1.1/DTD/svg11.dtd"><svg t="1679203906737" class="icon" viewBox="0 0 1024 1024" version="1.1" xmlns="http://www.w3.org/2000/svg" p-id="2912" width="250" height="250" xmlns:xlink="http://www.w3.org/1999/xlink"><path d="M91.9 117.8H932v88H91.9z" fill="#5FE0A3" p-id="2913"></path><path d="M179.2 183.8h665.6v725.3H179.2z" fill="#FFE91F" p-id="2914"></path><path d="M70.7 93.8v112.1h42v-70.1h798.6v70.1h42V93.8z" fill="#333333" p-id="2915"></path><path d="M823.8 888.2H200.2V183.8h-42v746.4h707.6V183.8h-42z" fill="#333333" p-id="2916"></path><path d="M285.9 229h452.3v42H285.9zM311.5 770.8h68.3v42h-68.3zM422.4 770.8h68.3v42h-68.3zM533.3 770.8h68.3v42h-68.3zM644.3 770.8h68.3v42h-68.3zM619.3 514.2c11.6 0 21-9.4 21-21s-9.4-21-21-21h-68.8l63.1-98c6.3-9.8 3.5-22.7-6.3-29-9.8-6.3-22.7-3.5-29 6.3L512 454.4l-66.2-102.9c-6.3-9.8-19.3-12.6-29-6.3-9.8 6.3-12.6 19.3-6.3 29l63.1 98h-68.8c-11.6 0-21 9.4-21 21s9.4 21 21 21H491v36.2h-86.3c-11.6 0-21 9.4-21 21s9.4 21 21 21H491v84.5c0 11.6 9.4 21 21 21s21-9.4 21-21v-84.5h86.3c11.6 0 21-9.4 21-21s-9.4-21-21-21H533v-36.2h86.3z" fill="#333333" p-id="2917"></path></svg>